<svg version="1.1" id="Uploaded to svgrepo.com" xmlns="http://www.w3.org/2000/svg" xmlns:xlink="http://www.w3.org/1999/xlink" width="500px" height="500px" viewBox="0 0 20 20" xml:space="preserve"><style type="text/css">.duotone_twee{fill:#555D5E;}
	.duotone_een{fill:#0B1719;}</style><g><path class="duotone_twee" d="M5.312 6.25H2.813a0.313 0.313 0 0 1 -0.313 -0.313v-0.625a0.313 0.313 0 0 1 0.313 -0.313h3.9a4.706 4.706 0 0 0 -1.401 1.25zM17.188 5h-5.775a4.706 4.706 0 0 1 1.401 1.25H17.188a0.313 0.313 0 0 0 0.313 -0.313v-0.625a0.313 0.313 0 0 0 -0.313 -0.313zM4.644 7.5H2.813a0.313 0.313 0 0 0 -0.313 0.313v0.625a0.313 0.313 0 0 0 0.313 0.313h1.578a4.657 4.657 0 0 1 0.254 -1.25zm12.544 0h-3.706c0.139 0.396 0.226 0.814 0.254 1.25H17.188a0.313 0.313 0 0 0 0.313 -0.313v-0.625a0.313 0.313 0 0 0 -0.313 -0.313zm0 2.5h-3.535a4.649 4.649 0 0 1 -0.454 1.25H17.188a0.313 0.313 0 0 0 0.313 -0.313v-0.625a0.313 0.313 0 0 0 -0.313 -0.313zM4.473 10H2.813a0.313 0.313 0 0 0 -0.313 0.313v0.625a0.313 0.313 0 0 0 0.313 0.313h2.114a4.627 4.627 0 0 1 -0.454 -1.25z"/><path class="duotone_een" d="M9.063 5a4.063 4.063 0 1 0 0 8.125 4.063 4.063 0 0 0 0 -8.125zm0 6.875a2.813 2.813 0 1 1 0 -5.625 2.813 2.813 0 0 1 0 5.625zm7.546 4.027 -0.863 0.879c-0.122 0.125 -0.324 0.125 -0.446 -0.001l-3.708 -3.791a4.723 4.723 0 0 0 1.334 -1.291l3.683 3.766a0.313 0.313 0 0 1 -0.001 0.438z"/></g></svg>